<svg xmlns="http://www.w3.org/2000/svg" viewBox="0 0 500 500" width="500" height="500" class="illustration"><g id="Layer_10" data-name="Layer 10"><polygon points="110.59 129 156.55 66.4 307.63 62.01 353.65 137.89 316.89 137.89 314.38 164.66 173.58 169.37 172.89 141.67 110.59 129" fill="#3fe2fd"></polygon><rect x="370.37" y="197.64" width="15.68" height="42.08" rx="7.15" fill="#3fe2fd"></rect><path d="M108.6,462.09H334s7.59-72.26-18.17-107.49l-69.13,53.75-93.47-75.46S92.59,359.71,108.6,462.09Z" fill="#3fe2fd"></path></g><g id="Layer_3" data-name="Layer 3"><path d="M242.48,341.8a36.39,36.39,0,0,1-36.35-36.34v-25.1a7,7,0,0,1,14,0v25.1a22.35,22.35,0,0,0,44.7,0v-25.1a7,7,0,0,1,14,0v25.1A36.39,36.39,0,0,1,242.48,341.8Z" fill="#251ac7"></path><path d="M241.2,287.36a77.69,77.69,0,0,1-77.6-77.6V176.37a7,7,0,0,1,14,0v33.39a63.61,63.61,0,0,0,127.21,0V176.37a7,7,0,0,1,14,0v33.39A77.69,77.69,0,0,1,241.2,287.36Z" fill="#251ac7"></path><path d="M368.23,467.38a7,7,0,0,1-7-6.79l-2.17-72.46c0-.2,0-.39,0-.59.56-10.13-4.9-32.9-21.92-50.89-16-16.9-38-25.47-65.33-25.47a7,7,0,0,1,0-14c30.91,0,57,10.32,75.49,29.85,20,21.15,26.35,47.9,25.76,61l2.16,72.18a7,7,0,0,1-6.79,7.2Z" fill="#251ac7"></path><path d="M107.93,462.09a7,7,0,0,1-7-7V397.31c0-26.47,11.83-51.71,33.3-71.05,20.51-18.48,47.57-29.08,74.25-29.08a7,7,0,0,1,0,14c-49.83,0-93.55,40.25-93.55,86.13v57.78A7,7,0,0,1,107.93,462.09Z" fill="#251ac7"></path><path d="M237.41,243.89a7,7,0,0,1-7-7V210.8a7,7,0,0,1,14,0v26.09A7,7,0,0,1,237.41,243.89Z" fill="#251ac7"></path><path d="M245.46,416.22a7,7,0,0,1-4.49-1.63l-99.82-83.32a7,7,0,0,1,9-10.75l95.11,79.39,86-79.17a7,7,0,0,1,9.48,10.31L250.2,414.37A7,7,0,0,1,245.46,416.22Z" fill="#251ac7"></path><path d="M311.65,178.66h-141a7,7,0,0,1-7-7V136a7,7,0,0,1,7-7h141a7,7,0,0,1,7,7v35.66A7,7,0,0,1,311.65,178.66Zm-134-14h127V143h-127Z" fill="#251ac7"></path><path d="M378.76,143H101.48a7,7,0,0,1-5.79-10.93l52-76.6a7,7,0,0,1,5.79-3.07H326.24A7,7,0,0,1,332,55.45L384.53,132a7,7,0,0,1-5.77,11ZM114.69,129H365.47L322.55,66.4H157.18Z" fill="#251ac7"></path><path d="M378.76,197.64a7,7,0,0,1-7-7V136a7,7,0,0,1,14,0v54.64A7,7,0,0,1,378.76,197.64Z" fill="#251ac7"></path><path d="M393.05,248.19H365a7,7,0,0,1-7-7V207.11a21,21,0,1,1,42.08,0v34.08A7,7,0,0,1,393.05,248.19Zm-21.08-14h14.08V207.11a7,7,0,1,0-14.08,0Z" fill="#251ac7"></path></g></svg>